<svg width="12" height="12" viewBox="0 0 12 12" fill="none" xmlns="http://www.w3.org/2000/svg">
<path d="M0.820821 5.75246C0.755337 5.91096 0.755338 6.08896 0.820822 6.24746C0.852438 6.32605 0.899152 6.39767 0.958322 6.45829L5.54166 11.0416C5.66322 11.1632 5.82809 11.2315 6 11.2315C6.17191 11.2315 6.33677 11.1632 6.45833 11.0416C6.57989 10.9201 6.64818 10.7552 6.64818 10.5833C6.64818 10.4114 6.57989 10.2465 6.45833 10.125L2.97958 6.64621L10.5833 6.65079C10.6689 6.65114 10.7537 6.63455 10.8328 6.60196C10.9119 6.56938 10.9838 6.52145 11.0443 6.46095C11.1048 6.40044 11.1528 6.32856 11.1853 6.24943C11.2179 6.17031 11.2345 6.08552 11.2342 5.99996C11.2345 5.91439 11.2179 5.8296 11.1853 5.75048C11.1528 5.67136 11.1048 5.59947 11.0443 5.53897C10.9838 5.47846 10.9119 5.43053 10.8328 5.39795C10.7537 5.36537 10.6689 5.34877 10.5833 5.34912L2.97957 5.35371L6.45833 1.87495C6.57989 1.75339 6.64818 1.58852 6.64818 1.41662C6.64818 1.24471 6.57989 1.07984 6.45833 0.958282C6.33677 0.836725 6.17191 0.768433 6 0.768433C5.82809 0.768433 5.66322 0.836725 5.54166 0.958282L0.958322 5.54162C0.899152 5.60224 0.852438 5.67387 0.820821 5.75246Z" fill="#0F808C"/>
</svg>
