<svg width="16" height="16" viewBox="0 0 16 16" fill="none" xmlns="http://www.w3.org/2000/svg">
<path fill-rule="evenodd" clip-rule="evenodd" d="M7.70859 0.499878C3.72736 0.499878 0.499939 3.65602 0.499939 7.54932C0.499939 11.4426 3.72736 14.5988 7.70859 14.5988C9.41135 14.5988 10.9762 14.0214 12.2097 13.056L14.5528 15.3414L14.6151 15.3939C14.8327 15.5513 15.141 15.5334 15.3379 15.3404C15.5544 15.1281 15.554 14.7844 15.3369 14.5726L13.0213 12.3141C14.1986 11.0594 14.9172 9.38643 14.9172 7.54932C14.9172 3.65602 11.6898 0.499878 7.70859 0.499878ZM7.70862 1.58562C11.0766 1.58562 13.807 4.25563 13.807 7.54926C13.807 10.8429 11.0766 13.5129 7.70862 13.5129C4.34061 13.5129 1.6103 10.8429 1.6103 7.54926C1.6103 4.25563 4.34061 1.58562 7.70862 1.58562Z" fill="white"/>
</svg>
